<mxfile host="app.diagrams.net" agent="Mozilla/5.0 (Windows NT 10.0; Win64; x64) AppleWebKit/537.36 (KHTML, like Gecko) Chrome/129.0.0.0 Safari/537.36 Edg/129.0.0.0" version="24.7.17">
  <diagram name="Page-1" id="Iuum0RxO2gWx_6loPVCK">
    <mxGraphModel dx="1996" dy="601" grid="1" gridSize="10" guides="1" tooltips="1" connect="1" arrows="1" fold="1" page="1" pageScale="1" pageWidth="850" pageHeight="1100" math="0" shadow="0">
      <root>
        <mxCell id="0" />
        <mxCell id="1" parent="0" />
        <mxCell id="PSi8deugSTTs9WXcJsNy-45" style="edgeStyle=orthogonalEdgeStyle;rounded=0;orthogonalLoop=1;jettySize=auto;html=1;exitX=0.5;exitY=1;exitDx=0;exitDy=0;entryX=0.5;entryY=0;entryDx=0;entryDy=0;" edge="1" parent="1" source="PSi8deugSTTs9WXcJsNy-1" target="PSi8deugSTTs9WXcJsNy-4">
          <mxGeometry relative="1" as="geometry" />
        </mxCell>
        <mxCell id="PSi8deugSTTs9WXcJsNy-47" style="edgeStyle=orthogonalEdgeStyle;rounded=0;orthogonalLoop=1;jettySize=auto;html=1;exitX=0.5;exitY=1;exitDx=0;exitDy=0;" edge="1" parent="1" source="PSi8deugSTTs9WXcJsNy-1" target="PSi8deugSTTs9WXcJsNy-5">
          <mxGeometry relative="1" as="geometry" />
        </mxCell>
        <mxCell id="PSi8deugSTTs9WXcJsNy-48" style="edgeStyle=orthogonalEdgeStyle;rounded=0;orthogonalLoop=1;jettySize=auto;html=1;exitX=0.5;exitY=1;exitDx=0;exitDy=0;" edge="1" parent="1" source="PSi8deugSTTs9WXcJsNy-1" target="PSi8deugSTTs9WXcJsNy-3">
          <mxGeometry relative="1" as="geometry" />
        </mxCell>
        <mxCell id="PSi8deugSTTs9WXcJsNy-49" style="edgeStyle=orthogonalEdgeStyle;rounded=0;orthogonalLoop=1;jettySize=auto;html=1;exitX=0.5;exitY=1;exitDx=0;exitDy=0;entryX=0.5;entryY=0;entryDx=0;entryDy=0;" edge="1" parent="1" source="PSi8deugSTTs9WXcJsNy-1" target="PSi8deugSTTs9WXcJsNy-2">
          <mxGeometry relative="1" as="geometry" />
        </mxCell>
        <mxCell id="PSi8deugSTTs9WXcJsNy-1" value="Hệ thống quản lý bến xe khách" style="rounded=0;whiteSpace=wrap;html=1;" vertex="1" parent="1">
          <mxGeometry x="320" y="220" width="210" height="60" as="geometry" />
        </mxCell>
        <mxCell id="PSi8deugSTTs9WXcJsNy-30" style="edgeStyle=orthogonalEdgeStyle;rounded=0;orthogonalLoop=1;jettySize=auto;html=1;exitX=0.5;exitY=1;exitDx=0;exitDy=0;entryX=0.5;entryY=0;entryDx=0;entryDy=0;" edge="1" parent="1" source="PSi8deugSTTs9WXcJsNy-2" target="PSi8deugSTTs9WXcJsNy-20">
          <mxGeometry relative="1" as="geometry" />
        </mxCell>
        <mxCell id="PSi8deugSTTs9WXcJsNy-56" style="edgeStyle=orthogonalEdgeStyle;rounded=0;orthogonalLoop=1;jettySize=auto;html=1;exitX=0.5;exitY=1;exitDx=0;exitDy=0;entryX=0.5;entryY=0;entryDx=0;entryDy=0;" edge="1" parent="1" source="PSi8deugSTTs9WXcJsNy-2" target="PSi8deugSTTs9WXcJsNy-54">
          <mxGeometry relative="1" as="geometry" />
        </mxCell>
        <mxCell id="PSi8deugSTTs9WXcJsNy-2" value="Quản lý phương tiện" style="rounded=1;whiteSpace=wrap;html=1;" vertex="1" parent="1">
          <mxGeometry x="480" y="350" width="120" height="60" as="geometry" />
        </mxCell>
        <mxCell id="PSi8deugSTTs9WXcJsNy-16" style="edgeStyle=orthogonalEdgeStyle;rounded=0;orthogonalLoop=1;jettySize=auto;html=1;exitX=0.5;exitY=1;exitDx=0;exitDy=0;entryX=0.5;entryY=0;entryDx=0;entryDy=0;" edge="1" parent="1" source="PSi8deugSTTs9WXcJsNy-3" target="PSi8deugSTTs9WXcJsNy-9">
          <mxGeometry relative="1" as="geometry" />
        </mxCell>
        <mxCell id="PSi8deugSTTs9WXcJsNy-3" value="Quản lý trật tự" style="rounded=1;whiteSpace=wrap;html=1;" vertex="1" parent="1">
          <mxGeometry x="200" y="350" width="120" height="60" as="geometry" />
        </mxCell>
        <mxCell id="PSi8deugSTTs9WXcJsNy-13" style="edgeStyle=orthogonalEdgeStyle;rounded=0;orthogonalLoop=1;jettySize=auto;html=1;exitX=0.5;exitY=1;exitDx=0;exitDy=0;entryX=0.5;entryY=0;entryDx=0;entryDy=0;" edge="1" parent="1" source="PSi8deugSTTs9WXcJsNy-4" target="PSi8deugSTTs9WXcJsNy-6">
          <mxGeometry relative="1" as="geometry" />
        </mxCell>
        <mxCell id="PSi8deugSTTs9WXcJsNy-4" value="Quản lý khách hàng" style="rounded=1;whiteSpace=wrap;html=1;" vertex="1" parent="1">
          <mxGeometry y="350" width="120" height="60" as="geometry" />
        </mxCell>
        <mxCell id="PSi8deugSTTs9WXcJsNy-42" style="edgeStyle=orthogonalEdgeStyle;rounded=0;orthogonalLoop=1;jettySize=auto;html=1;exitX=0.5;exitY=1;exitDx=0;exitDy=0;entryX=0.5;entryY=0;entryDx=0;entryDy=0;" edge="1" parent="1" source="PSi8deugSTTs9WXcJsNy-5" target="PSi8deugSTTs9WXcJsNy-39">
          <mxGeometry relative="1" as="geometry" />
        </mxCell>
        <mxCell id="PSi8deugSTTs9WXcJsNy-5" value="Quản lý nhân sự" style="rounded=1;whiteSpace=wrap;html=1;" vertex="1" parent="1">
          <mxGeometry x="730" y="350" width="120" height="60" as="geometry" />
        </mxCell>
        <mxCell id="PSi8deugSTTs9WXcJsNy-14" style="edgeStyle=orthogonalEdgeStyle;rounded=0;orthogonalLoop=1;jettySize=auto;html=1;exitX=0.5;exitY=1;exitDx=0;exitDy=0;entryX=0.5;entryY=0;entryDx=0;entryDy=0;" edge="1" parent="1" source="PSi8deugSTTs9WXcJsNy-6" target="PSi8deugSTTs9WXcJsNy-7">
          <mxGeometry relative="1" as="geometry" />
        </mxCell>
        <mxCell id="PSi8deugSTTs9WXcJsNy-6" value="Tiếp nhận yêu cầu&lt;div&gt;(Thông tin, đặt vé)&lt;/div&gt;" style="rounded=0;whiteSpace=wrap;html=1;" vertex="1" parent="1">
          <mxGeometry x="-30" y="460" width="180" height="60" as="geometry" />
        </mxCell>
        <mxCell id="PSi8deugSTTs9WXcJsNy-15" style="edgeStyle=orthogonalEdgeStyle;rounded=0;orthogonalLoop=1;jettySize=auto;html=1;exitX=0.5;exitY=1;exitDx=0;exitDy=0;entryX=0.5;entryY=0;entryDx=0;entryDy=0;" edge="1" parent="1" source="PSi8deugSTTs9WXcJsNy-7" target="PSi8deugSTTs9WXcJsNy-8">
          <mxGeometry relative="1" as="geometry" />
        </mxCell>
        <mxCell id="PSi8deugSTTs9WXcJsNy-7" value="Xử lý yêu cầu" style="rounded=0;whiteSpace=wrap;html=1;" vertex="1" parent="1">
          <mxGeometry x="-30" y="550" width="180" height="60" as="geometry" />
        </mxCell>
        <mxCell id="PSi8deugSTTs9WXcJsNy-8" value="Lưu trữ thông tin khách hàng" style="rounded=0;whiteSpace=wrap;html=1;" vertex="1" parent="1">
          <mxGeometry x="-30" y="640" width="180" height="60" as="geometry" />
        </mxCell>
        <mxCell id="PSi8deugSTTs9WXcJsNy-50" style="edgeStyle=orthogonalEdgeStyle;rounded=0;orthogonalLoop=1;jettySize=auto;html=1;exitX=0.5;exitY=1;exitDx=0;exitDy=0;" edge="1" parent="1" source="PSi8deugSTTs9WXcJsNy-9" target="PSi8deugSTTs9WXcJsNy-10">
          <mxGeometry relative="1" as="geometry" />
        </mxCell>
        <mxCell id="PSi8deugSTTs9WXcJsNy-9" value="Giám sát trật tự" style="rounded=0;whiteSpace=wrap;html=1;" vertex="1" parent="1">
          <mxGeometry x="170" y="460" width="180" height="60" as="geometry" />
        </mxCell>
        <mxCell id="PSi8deugSTTs9WXcJsNy-18" style="edgeStyle=orthogonalEdgeStyle;rounded=0;orthogonalLoop=1;jettySize=auto;html=1;exitX=0.5;exitY=1;exitDx=0;exitDy=0;entryX=0.5;entryY=0;entryDx=0;entryDy=0;" edge="1" parent="1" source="PSi8deugSTTs9WXcJsNy-10" target="PSi8deugSTTs9WXcJsNy-11">
          <mxGeometry relative="1" as="geometry" />
        </mxCell>
        <mxCell id="PSi8deugSTTs9WXcJsNy-10" value="Xử lý sự cố" style="rounded=0;whiteSpace=wrap;html=1;" vertex="1" parent="1">
          <mxGeometry x="170" y="550" width="180" height="60" as="geometry" />
        </mxCell>
        <mxCell id="PSi8deugSTTs9WXcJsNy-11" value="Lưu trữ biên bản" style="rounded=0;whiteSpace=wrap;html=1;" vertex="1" parent="1">
          <mxGeometry x="170" y="640" width="180" height="60" as="geometry" />
        </mxCell>
        <mxCell id="PSi8deugSTTs9WXcJsNy-31" style="edgeStyle=orthogonalEdgeStyle;rounded=0;orthogonalLoop=1;jettySize=auto;html=1;exitX=0.5;exitY=1;exitDx=0;exitDy=0;entryX=0.5;entryY=0;entryDx=0;entryDy=0;" edge="1" parent="1" source="PSi8deugSTTs9WXcJsNy-20" target="PSi8deugSTTs9WXcJsNy-21">
          <mxGeometry relative="1" as="geometry" />
        </mxCell>
        <mxCell id="PSi8deugSTTs9WXcJsNy-20" value="Kiểm tra số lượng" style="rounded=0;whiteSpace=wrap;html=1;" vertex="1" parent="1">
          <mxGeometry x="380" y="470" width="140" height="40" as="geometry" />
        </mxCell>
        <mxCell id="PSi8deugSTTs9WXcJsNy-32" style="edgeStyle=orthogonalEdgeStyle;rounded=0;orthogonalLoop=1;jettySize=auto;html=1;exitX=0.5;exitY=1;exitDx=0;exitDy=0;entryX=0.5;entryY=0;entryDx=0;entryDy=0;" edge="1" parent="1" source="PSi8deugSTTs9WXcJsNy-21" target="PSi8deugSTTs9WXcJsNy-22">
          <mxGeometry relative="1" as="geometry" />
        </mxCell>
        <mxCell id="PSi8deugSTTs9WXcJsNy-21" value="liên hệ nhà cung cấp" style="rounded=0;whiteSpace=wrap;html=1;" vertex="1" parent="1">
          <mxGeometry x="380" y="550" width="140" height="40" as="geometry" />
        </mxCell>
        <mxCell id="PSi8deugSTTs9WXcJsNy-22" value="cập nhật thông tin xe" style="rounded=0;whiteSpace=wrap;html=1;" vertex="1" parent="1">
          <mxGeometry x="450" y="660" width="140" height="40" as="geometry" />
        </mxCell>
        <mxCell id="PSi8deugSTTs9WXcJsNy-43" style="edgeStyle=orthogonalEdgeStyle;rounded=0;orthogonalLoop=1;jettySize=auto;html=1;exitX=0.5;exitY=1;exitDx=0;exitDy=0;entryX=0.5;entryY=0;entryDx=0;entryDy=0;" edge="1" parent="1" source="PSi8deugSTTs9WXcJsNy-39" target="PSi8deugSTTs9WXcJsNy-40">
          <mxGeometry relative="1" as="geometry" />
        </mxCell>
        <mxCell id="PSi8deugSTTs9WXcJsNy-39" value="Tuyển dụng" style="rounded=0;whiteSpace=wrap;html=1;" vertex="1" parent="1">
          <mxGeometry x="700" y="460" width="180" height="60" as="geometry" />
        </mxCell>
        <mxCell id="PSi8deugSTTs9WXcJsNy-44" style="edgeStyle=orthogonalEdgeStyle;rounded=0;orthogonalLoop=1;jettySize=auto;html=1;exitX=0.5;exitY=1;exitDx=0;exitDy=0;entryX=0.5;entryY=0;entryDx=0;entryDy=0;" edge="1" parent="1" source="PSi8deugSTTs9WXcJsNy-40" target="PSi8deugSTTs9WXcJsNy-41">
          <mxGeometry relative="1" as="geometry" />
        </mxCell>
        <mxCell id="PSi8deugSTTs9WXcJsNy-40" value="Quản lý thông tin nhân viên" style="rounded=0;whiteSpace=wrap;html=1;" vertex="1" parent="1">
          <mxGeometry x="700" y="550" width="180" height="60" as="geometry" />
        </mxCell>
        <mxCell id="PSi8deugSTTs9WXcJsNy-41" value="Quản lý giờ công nhân viên" style="rounded=0;whiteSpace=wrap;html=1;" vertex="1" parent="1">
          <mxGeometry x="700" y="640" width="180" height="60" as="geometry" />
        </mxCell>
        <mxCell id="PSi8deugSTTs9WXcJsNy-51" value="Kiểm tra số lượng" style="rounded=0;whiteSpace=wrap;html=1;" vertex="1" parent="1">
          <mxGeometry x="380" y="470" width="140" height="40" as="geometry" />
        </mxCell>
        <mxCell id="PSi8deugSTTs9WXcJsNy-57" style="edgeStyle=orthogonalEdgeStyle;rounded=0;orthogonalLoop=1;jettySize=auto;html=1;exitX=0.5;exitY=1;exitDx=0;exitDy=0;entryX=0.5;entryY=0;entryDx=0;entryDy=0;" edge="1" parent="1" source="PSi8deugSTTs9WXcJsNy-54" target="PSi8deugSTTs9WXcJsNy-55">
          <mxGeometry relative="1" as="geometry" />
        </mxCell>
        <mxCell id="PSi8deugSTTs9WXcJsNy-54" value="Kiểm tra tình trạng xe" style="rounded=0;whiteSpace=wrap;html=1;" vertex="1" parent="1">
          <mxGeometry x="540" y="470" width="140" height="40" as="geometry" />
        </mxCell>
        <mxCell id="PSi8deugSTTs9WXcJsNy-58" style="edgeStyle=orthogonalEdgeStyle;rounded=0;orthogonalLoop=1;jettySize=auto;html=1;exitX=0.5;exitY=1;exitDx=0;exitDy=0;entryX=0.5;entryY=0;entryDx=0;entryDy=0;" edge="1" parent="1" source="PSi8deugSTTs9WXcJsNy-55" target="PSi8deugSTTs9WXcJsNy-22">
          <mxGeometry relative="1" as="geometry" />
        </mxCell>
        <mxCell id="PSi8deugSTTs9WXcJsNy-55" value="Liên hệ bảo trì" style="rounded=0;whiteSpace=wrap;html=1;" vertex="1" parent="1">
          <mxGeometry x="540" y="550" width="140" height="40" as="geometry" />
        </mxCell>
      </root>
    </mxGraphModel>
  </diagram>
</mxfile>
